<svg xmlns="http://www.w3.org/2000/svg" viewBox="0 0 32 32"><rect width="32" height="32" rx="6" fill="#9046FF"/><g transform="translate(6 4) scale(0.48)"><path d="M7.59 37.2C2.62 48.2 13.2 51 21 44.5C23.3 51.7 31.9 46.4 35 40.8C41.8 28.4 39 15.9 38.3 13.3C33.5-4.4 9.3-4.5 5.2 13.4C4.2 16.5 4.2 20 3.7 23.7C3.4 25.5 3.2 26.7 2.5 28.7C2.1 29.8 1.5 30.8.6 32.5C-.8 35.1-.2 40.1 6.9 37.5L7.6 37.2Z" fill="white"/><path d="M21.9 20.9C19.9 20.9 19.6 18.6 19.6 17.1C19.6 15.9 19.9 14.9 20.3 14.2C20.7 13.7 21.2 13.4 21.9 13.4C22.6 13.4 23.2 13.7 23.6 14.2C24.1 14.9 24.4 15.9 24.4 17.1C24.4 19.5 23.5 20.9 21.9 20.9Z" fill="#9046FF"/><path d="M30.1 20.9C28.1 20.9 27.8 18.6 27.8 17.1C27.8 15.9 28 14.9 28.5 14.2C28.8 13.7 29.4 13.4 30.1 13.4C30.8 13.4 31.4 13.7 31.8 14.2C32.3 14.9 32.5 15.9 32.5 17.1C32.5 19.5 31.6 20.9 30.1 20.9Z" fill="#9046FF"/></g></svg>
